<svg width="326" height="326" viewBox="50 68 230 195" fill="none" xmlns="http://www.w3.org/2000/svg">
<path d="M149.486 121.897H149.487C151.111 122.006 152.494 123.114 152.956 124.674L169.794 181.525L170.697 184.574L171.701 181.557L189.838 127.062C190.32 125.614 191.605 124.58 193.121 124.421C194.638 124.261 196.11 125.003 196.883 126.317V126.318L212.66 153.151L212.95 153.645H260.09L260.29 153.649C262.345 153.754 263.979 155.453 263.979 157.534C263.979 159.683 262.238 161.424 260.09 161.424H210.724C209.431 161.424 208.229 160.784 207.508 159.725L207.37 159.507L195.631 139.542L194.515 137.645L193.82 139.733L174.17 198.773V198.774C173.641 200.366 172.153 201.435 170.48 201.436H170.415C168.715 201.407 167.232 200.279 166.75 198.65L149.238 139.521L148.474 136.937L147.367 139.395L138.46 159.195V159.196C137.833 160.592 136.442 161.489 134.912 161.489H134.905L95.8329 161.424C93.684 161.42 91.9455 159.676 91.9491 157.528C91.953 155.382 93.6944 153.645 95.8387 153.645H95.8456L131.75 153.704L132.397 153.706L132.663 153.115L145.678 124.184L145.677 124.183C146.345 122.699 147.866 121.787 149.486 121.897Z" fill="white"/>
<path d="M198.075 78.4072C204.589 78.4073 211.102 79.6383 217.435 82.0703H217.436C223.188 84.2784 228.539 87.3797 233.362 91.2949L234.32 92.0889C244.945 101.087 251.67 113.134 253.293 125.995C253.97 131.366 254.109 136.664 253.717 141.861H245.922C246.33 136.998 246.213 132.038 245.574 126.97C242.732 104.441 221.423 86.1878 198.075 86.1875C195.603 86.1875 193.138 86.4019 190.733 86.8271L189.706 87.0225C178.489 89.3002 169.28 94.4775 161.63 102.821L160.894 103.639C160.157 104.474 159.094 104.953 157.979 104.953C156.864 104.953 155.802 104.474 155.065 103.639L154.33 102.821C146.926 94.7481 138.064 89.6376 127.333 87.252L126.254 87.0225C123.525 86.4677 120.71 86.1875 117.884 86.1875C94.536 86.1877 73.2256 104.441 70.3854 126.97C67.5281 149.636 75.0847 170.006 93.317 189.175C100.167 196.376 108.212 203.44 117.226 210.17C127.108 217.548 137.505 224.674 147.541 231.554V231.555C150.78 233.777 154.107 236.055 157.411 238.341L157.979 238.734L158.548 238.342C160.201 237.2 161.859 236.058 163.509 234.925L168.422 231.555C178.458 224.675 188.855 217.549 198.735 210.172L198.734 210.171C207.748 203.442 215.794 196.379 222.644 189.176L223.576 188.196L223.565 188.19C228.13 183.283 231.999 178.292 235.177 173.201H244.197C240.153 180.504 234.829 187.647 228.277 194.536C221.134 202.045 212.759 209.404 203.383 216.404C193.381 223.872 182.936 231.033 172.814 237.971C169.219 240.435 165.512 242.978 161.857 245.511L161.692 245.625L161.584 245.793C161.224 246.354 160.72 246.825 160.107 247.146L160.106 247.146C159.541 247.442 158.923 247.588 158.307 247.588C158.216 247.588 158.132 247.585 158.049 247.579L157.979 247.574L157.908 247.579C157.205 247.627 156.492 247.485 155.845 247.146L155.844 247.146L155.62 247.019C155.107 246.706 154.681 246.284 154.367 245.793L154.259 245.625L154.094 245.511L148.594 241.716C146.762 240.456 144.936 239.204 143.138 237.972C133.017 231.034 122.57 223.872 112.568 216.404C103.193 209.405 94.8187 202.046 87.6754 194.536C78.239 184.618 71.3489 174.165 67.1676 163.481C62.5362 151.647 61.0187 139.038 62.6627 125.997C64.2852 113.136 71.0109 101.089 81.6364 92.0908C86.7055 87.7976 92.3848 84.4274 98.5201 82.0703C104.855 79.6381 111.368 78.4072 117.881 78.4072C121.227 78.4072 124.564 78.741 127.798 79.3975C139.205 81.7144 149.095 86.8615 157.286 94.7256L157.978 95.3906L158.671 94.7256C166.862 86.8614 176.752 81.7127 188.158 79.3975C191.394 78.7395 194.729 78.4072 198.075 78.4072Z" fill="white"/>
</svg>
