<svg width="326" height="326" viewBox="50 65 230 200" fill="none" xmlns="http://www.w3.org/2000/svg">
<path d="M86.8183 82.751C93.9168 78.8502 102.198 77.0598 111.644 77.4443V77.4453C119.14 77.7656 125.151 79.491 130.087 82.666C139.361 88.6603 144.207 97.8217 144.462 110.013V110.015C144.556 114.209 143.767 118.131 142.142 121.633L142.139 121.639C141.356 123.354 139.347 124.104 137.64 123.301L137.628 123.296L137.471 123.219C135.867 122.388 135.188 120.45 135.967 118.796L135.97 118.788C137.106 116.322 137.657 113.684 137.665 110.729L137.659 110.134C137.458 100.336 133.806 93.1572 126.38 88.3867H126.381C122.371 85.7821 117.583 84.5148 111.372 84.249H111.37C103.268 83.917 96.1852 85.3853 90.0849 88.7402C83.9852 92.0949 78.9334 97.3001 74.8339 104.337C70.5296 111.701 69.4505 119.966 69.0907 129.907L69.0878 129.975L69.0946 130.043C69.1591 130.688 69.2159 131.333 69.2685 131.977L69.4189 133.899C69.6467 136.926 69.8772 139.827 70.3065 142.702V142.703C71.6568 151.99 74.0395 159.052 77.8251 164.881L77.8261 164.882C85.468 176.611 95.0467 182.451 106.961 182.451C107.704 182.451 108.527 182.451 109.357 182.382C116.165 181.94 121.484 179.46 125.398 174.756L125.4 174.754C127.78 171.882 129.592 168.21 129.789 164.276C129.988 160.301 128.529 156.165 124.562 152.456C123.202 151.167 123.134 148.999 124.411 147.646C125.7 146.282 127.871 146.214 129.225 147.492L129.227 147.495C134.098 152.051 136.604 157.63 136.604 163.619C136.604 168.797 134.619 174.136 130.997 178.68L130.642 179.117C125.554 185.241 118.551 188.65 109.768 189.189L109.763 189.19C109.018 189.24 108.294 189.268 107.575 189.279L107.546 189.221H106.928C93.0355 189.221 81.4766 182.548 72.5253 169.189L72.1005 168.549C67.7998 161.954 65.0663 154.05 63.5487 143.653C63.2106 141.335 62.981 138.993 62.7909 136.689L62.6112 134.399C62.5619 133.725 62.5041 133.044 62.4472 132.369C62.3911 131.704 62.3358 131.045 62.288 130.396V129.91C62.5817 120.775 63.4021 110.447 68.9648 100.911L68.9657 100.91C73.7463 92.6967 79.7192 86.6522 86.8183 82.751Z" fill="white"/>
<path d="M122.299 104.985C122.831 104.071 124.008 103.761 124.942 104.304C125.8 104.802 126.125 105.868 125.715 106.769L125.624 106.946L121.809 113.499L121.808 113.502C120.96 114.97 119.863 116.779 118.226 118.118L117.508 118.705L118.041 119.465C119.399 121.405 120.65 123.353 121.552 125.562L121.721 125.975L122.141 126.125C130.396 129.082 140.466 133.506 147.224 141.914L147.923 142.783L147.942 142.763C157.38 155.266 156.899 172.073 154.681 184.27C153.678 189.738 152.286 195.149 150.916 200.435L150.915 200.437C148.8 208.669 146.787 216.513 146.16 224.667L146.159 224.67C145.663 231.383 146.126 238.1 147.616 244.688V244.689C148 246.371 146.991 248.037 145.336 248.504L145.173 248.545C144.958 248.592 144.708 248.618 144.483 248.618C143.024 248.618 141.7 247.601 141.349 246.098C139.843 239.344 139.268 232.449 139.653 225.547L139.743 224.166C140.387 215.469 142.579 207.048 144.702 198.816L144.703 198.813C145.923 194.025 147.21 189.051 148.152 184.115L148.336 183.129C150.299 172.263 150.935 156.772 142.231 145.942L142.23 145.941L141.774 145.391C137.001 139.773 130.234 136.226 124.091 133.743L122.932 133.274L122.73 134.509C122.425 136.368 121.753 138.242 120.699 140.104C118.707 143.559 115.566 146.652 111.87 149.201L111.728 149.3L111.627 149.439C111.358 149.811 110.988 150.047 110.51 150.16L110.352 150.198L110.214 150.284C106.064 152.87 101.498 154.753 97.4274 155.771L97.3493 155.79L97.276 155.821C97.286 155.817 97.2718 155.825 97.2116 155.831C97.147 155.838 97.074 155.838 96.9528 155.838C96.0893 155.838 95.2996 155.254 95.0876 154.385L95.0866 154.379L95.0485 154.185C94.9079 153.215 95.5199 152.278 96.4782 152.038L96.4772 152.037C98.7957 151.466 101.336 150.563 103.868 149.363L105.797 148.45L103.86 147.553L96.7536 144.26L96.6823 144.228L96.6081 144.206L93.1852 143.228L93.1715 143.225L92.985 143.163C92.0782 142.814 91.5676 141.816 91.8493 140.851L91.8512 140.842L91.8542 140.832C92.1309 139.811 93.1972 139.209 94.2272 139.51L94.2331 139.511L98.0338 140.597L109.214 145.781L109.745 146.028L110.22 145.684C113.122 143.582 115.689 141.103 117.317 138.228L117.316 138.227C118.432 136.272 119.009 134.285 119.045 132.243V132.226C119.045 130.954 118.867 129.717 118.481 128.42L118.474 128.394L118.465 128.368L118.215 127.663C118.169 127.538 118.122 127.412 118.073 127.285L117.921 126.909C116.891 124.475 115.287 122.263 113.71 120.041L113.704 120.033C111.219 116.6 108.842 113.244 107.943 108.861C107.749 107.79 108.424 106.786 109.475 106.571C110.533 106.355 111.535 107.018 111.751 108.073L111.752 108.077C112.244 110.435 113.362 112.577 114.664 114.579L115.321 115.591L116.193 114.757C117.061 113.927 117.812 112.693 118.485 111.539V111.538L122.299 104.985Z" fill="white"/>
<path d="M214.354 77.4443C223.801 77.0596 232.082 78.85 239.181 82.751C246.281 86.6522 252.253 92.6967 257.034 100.91L257.035 100.911C262.597 110.447 263.418 120.775 263.712 129.91V130.396C263.664 131.045 263.609 131.704 263.552 132.369C263.496 133.044 263.438 133.725 263.388 134.399C263.16 137.43 262.902 140.561 262.451 143.653C260.981 153.726 258.37 161.459 254.298 167.928L253.899 168.549C244.89 182.335 233.185 189.221 219.072 189.221H218.454L218.424 189.279C217.705 189.268 216.981 189.24 216.237 189.19L216.232 189.189L215.414 189.131C207.284 188.457 200.723 185.265 195.841 179.683L195.359 179.117C191.512 174.481 189.395 168.965 189.395 163.619C189.395 157.63 191.902 152.051 196.772 147.495L196.776 147.492C198.13 146.214 200.3 146.282 201.589 147.646C202.866 148.999 202.798 151.167 201.437 152.456C197.47 156.165 196.012 160.301 196.211 164.276C196.408 168.211 198.221 171.882 200.6 174.754L200.601 174.756C204.515 179.46 209.834 181.94 216.641 182.382V182.383C217.472 182.452 218.296 182.451 219.04 182.451C230.954 182.451 240.533 176.61 248.174 164.882V164.881C251.96 159.052 254.342 151.992 255.692 142.706L255.693 142.707C256.123 139.83 256.353 136.928 256.581 133.899C256.679 132.624 256.776 131.333 256.905 130.043L256.912 129.975L256.909 129.907C256.56 120.276 255.537 112.219 251.56 105.029L251.166 104.337C247.066 97.3002 242.014 92.0948 235.915 88.7402C229.815 85.3854 222.732 83.917 214.63 84.249H214.629C208.418 84.5147 203.629 85.782 199.619 88.3867C192.194 93.1572 188.543 100.336 188.341 110.134C188.273 113.331 188.818 116.157 190.03 118.788L190.033 118.796C190.811 120.45 190.133 122.388 188.53 123.219L188.372 123.296L188.361 123.301C186.654 124.104 184.643 123.354 183.861 121.639L183.858 121.633L183.563 120.972C182.137 117.64 181.45 113.947 181.539 110.015V110.013C181.793 97.8222 186.638 88.6603 195.912 82.666L195.913 82.667C200.848 79.4918 206.86 77.7656 214.355 77.4453L214.354 77.4443Z" fill="white"/>
<path d="M201.058 104.304C201.934 103.795 203.023 104.035 203.593 104.821L203.701 104.985L207.515 111.538V111.539C208.189 112.694 208.939 113.927 209.807 114.757L210.679 115.591L211.337 114.579C212.638 112.577 213.755 110.435 214.248 108.077L214.249 108.073C214.464 107.018 215.468 106.355 216.525 106.571C217.572 106.785 218.245 107.781 218.059 108.847C217.163 113.237 214.784 116.596 212.297 120.033L212.291 120.041C210.713 122.262 209.109 124.474 208.08 126.908C207.868 127.402 207.688 127.94 207.535 128.368L207.526 128.394L207.518 128.42C207.133 129.717 206.956 130.954 206.956 132.226V132.243C206.992 134.285 207.566 136.272 208.682 138.227V138.228C210.311 141.103 212.878 143.582 215.78 145.684L216.255 146.028L216.787 145.781L227.965 140.597L231.767 139.511L231.773 139.51C232.803 139.21 233.869 139.811 234.146 140.832L234.148 140.842L234.151 140.851C234.451 141.881 233.85 142.947 232.829 143.224L232.815 143.228L229.392 144.206L229.317 144.228L229.247 144.26L222.14 147.553L220.203 148.45L222.132 149.363C224.664 150.563 227.204 151.466 229.522 152.037V152.038C230.544 152.294 231.173 153.343 230.914 154.379L230.913 154.385C230.701 155.254 229.911 155.838 229.047 155.838C228.926 155.838 228.853 155.838 228.789 155.831C228.728 155.825 228.714 155.817 228.724 155.821L228.651 155.79L228.573 155.771L227.804 155.569C223.933 154.514 219.677 152.708 215.787 150.284L215.648 150.198L215.49 150.16L215.315 150.112C214.921 149.986 214.609 149.765 214.374 149.439L214.272 149.3L214.13 149.201L213.444 148.717C210.046 146.264 207.168 143.343 205.3 140.104C204.247 138.242 203.575 136.367 203.27 134.509L203.068 133.274L201.908 133.743C195.567 136.306 188.561 140.003 183.77 145.941L183.769 145.942C175.337 156.434 175.67 171.299 177.484 182.097L177.664 183.129C178.617 188.387 179.996 193.706 181.297 198.813L181.298 198.816C183.355 206.79 185.476 214.943 186.192 223.352L186.257 224.166C186.804 231.533 186.257 238.9 184.648 246.107C184.294 247.605 182.973 248.618 181.517 248.618C181.292 248.618 181.041 248.592 180.826 248.545H180.827C179.075 248.145 177.988 246.425 178.384 244.689V244.688C179.874 238.1 180.336 231.383 179.84 224.67V224.667C179.213 216.513 177.201 208.669 175.086 200.437L175.085 200.435L174.059 196.448C173.127 192.774 172.233 189.049 171.511 185.295L171.319 184.27C169.102 172.074 168.62 155.267 178.057 142.764L178.077 142.783L178.775 141.914C185.534 133.505 195.604 129.082 203.859 126.125L204.279 125.975L204.448 125.562C205.35 123.353 206.602 121.405 207.96 119.465L208.492 118.705L207.774 118.118C206.137 116.779 205.04 114.97 204.192 113.502L204.19 113.499L200.377 106.946C199.834 106.012 200.143 104.836 201.058 104.304Z" fill="white"/>
</svg>
