<svg width="337" height="337" viewBox="90 85 170 185" fill="none" xmlns="http://www.w3.org/2000/svg">
<path d="M232.375 251.187C232.2 251.187 232.024 251.17 231.846 251.129C230.471 250.839 229.595 249.488 229.884 248.113C229.918 247.961 233.153 232.591 235.644 214.15C235.833 212.758 237.123 211.785 238.505 211.97C239.897 212.159 240.874 213.439 240.685 214.831C238.165 233.467 234.892 249.013 234.859 249.168C234.606 250.364 233.548 251.187 232.372 251.187H232.375Z" fill="white"/>
<path d="M240.082 200.33C240.005 200.33 239.927 200.326 239.85 200.319C238.451 200.191 237.42 198.955 237.548 197.556C238.303 189.276 238.643 181.909 238.556 175.658C238.377 163.465 235.273 151.522 230.252 143.714C209.917 112.063 141.769 104.618 113.417 102.886C112.015 102.802 110.947 101.595 111.035 100.193C111.119 98.7915 112.336 97.7131 113.727 97.8108C149.908 100.022 213.715 108.565 234.532 140.967C240.045 149.54 243.449 162.485 243.641 175.587C243.729 182.017 243.381 189.566 242.613 198.018C242.492 199.339 241.383 200.33 240.082 200.33Z" fill="white"/>
<path d="M151.027 251.186C151.003 251.186 150.983 251.186 150.959 251.186C149.554 251.149 148.445 249.983 148.482 248.578C148.657 241.669 149.19 235.438 149.658 229.945C150.784 216.755 151.596 207.225 146.831 199.231C143.013 192.835 128.067 188.821 105.821 188.218C104.416 188.181 103.311 187.011 103.348 185.606C103.385 184.201 104.575 183.099 105.96 183.133C123.204 183.601 145.052 186.321 151.202 196.626C156.806 206.028 155.889 216.772 154.727 230.38C154.262 235.806 153.739 241.953 153.568 248.709C153.534 250.091 152.402 251.19 151.027 251.19V251.186Z" fill="white"/>
<path d="M169.39 186.391C165.127 186.391 161.635 184.979 158.997 182.185C154.117 177.016 153.723 168.466 153.868 164.193L108.224 159.286C106.829 159.138 105.818 157.881 105.966 156.486C106.115 155.09 107.372 154.086 108.767 154.228L156.847 159.394C157.524 159.468 158.144 159.808 158.569 160.344C158.993 160.88 159.182 161.561 159.098 162.238C159.084 162.346 157.78 173.501 162.7 178.701C164.547 180.655 167.064 181.494 170.418 181.269C175.284 180.945 178.775 179.321 180.79 176.446C184.787 170.741 182.24 161.696 182.213 161.605C182.007 160.894 182.122 160.125 182.526 159.505C182.93 158.885 183.588 158.471 184.322 158.373C184.487 158.349 201.317 155.95 200.003 145.199C199.491 141.034 197.768 137.971 194.742 135.838C186.557 130.068 171.991 133.239 171.843 133.273C171.567 133.334 171.284 133.354 171.004 133.317L111.156 126.58C109.761 126.422 108.757 125.165 108.912 123.766C109.07 122.371 110.327 121.36 111.722 121.522L171.162 128.211C173.912 127.662 188.444 125.172 197.667 131.676C201.873 134.641 204.36 138.982 205.048 144.576C206.416 155.791 195.477 161.17 187.689 162.926C188.329 166.771 188.784 173.871 184.966 179.341C182.024 183.553 177.242 185.912 170.751 186.344C170.286 186.374 169.831 186.391 169.383 186.391H169.39Z" fill="white"/>
<path d="M216.812 191.952C215.06 191.952 212.96 191.429 210.393 190.361C203.535 187.496 203.322 182.96 203.076 177.71C203.022 176.598 202.968 175.385 202.85 174.053C202.399 168.982 202.406 164.038 202.409 159.252C202.409 156.634 202.416 153.931 202.345 151.232C202.318 150.211 202.672 149.26 203.349 148.566C204.134 147.761 205.253 147.35 206.672 147.35C210.339 147.35 218.096 150.632 219.697 153.358C222.605 158.316 222.821 165.605 223.013 172.035C223.074 174.128 223.131 176.102 223.283 177.767C223.751 182.923 223.943 187.402 221.544 190.031C220.378 191.308 218.787 191.955 216.812 191.955V191.952ZM207.457 152.502C207.501 154.794 207.498 157.055 207.494 159.256C207.491 164.142 207.484 168.756 207.916 173.599C208.04 175.007 208.101 176.291 208.158 177.467C208.394 182.512 208.465 184.035 212.354 185.66C214.73 186.651 216.091 186.859 216.812 186.859C217.544 186.859 217.726 186.657 217.786 186.593C218.868 185.407 218.41 180.372 218.214 178.222C218.049 176.402 217.988 174.353 217.924 172.18C217.753 166.36 217.557 159.761 215.306 155.93C214.598 155.138 210.14 152.92 207.457 152.499V152.502Z" fill="white"/>
<path d="M201.846 255.078C200.488 255.078 199.359 254.007 199.305 252.638C199.261 251.536 198.24 225.493 200.255 216.037C201.489 210.247 203.639 207.069 205.368 204.515C207.194 201.815 208.512 199.868 208.512 195.402C208.512 185.033 204.687 184.187 200.063 184.187H186.62C179.621 184.187 176.767 187.031 176.767 194.004C176.767 198.418 178.071 200.312 179.877 202.938C181.596 205.431 183.732 208.539 185.016 214.254C187.207 223.983 187.375 251.361 187.382 252.524C187.389 253.929 186.256 255.071 184.851 255.082H184.838C183.439 255.082 182.303 253.953 182.293 252.551C182.293 252.271 182.121 224.566 180.052 215.373C178.981 210.614 177.306 208.178 175.685 205.822C173.717 202.961 171.678 200.002 171.678 194.004C171.678 187.206 174.269 179.102 186.62 179.102H200.063C209.422 179.102 213.597 184.13 213.597 195.402C213.597 201.424 211.555 204.444 209.58 207.366C207.946 209.782 206.257 212.279 205.23 217.098C203.346 225.931 204.374 252.17 204.387 252.436C204.441 253.841 203.352 255.024 201.947 255.082C201.913 255.082 201.876 255.082 201.843 255.082L201.846 255.078Z" fill="white"/>
<path d="M174.226 255.079C174.185 255.079 174.145 255.079 174.108 255.079C172.706 255.015 171.621 253.825 171.685 252.42L173.986 202.365C174.05 200.964 175.264 199.875 176.645 199.942C178.047 200.006 179.132 201.196 179.068 202.601L176.767 252.656C176.703 254.021 175.577 255.082 174.229 255.082L174.226 255.079Z" fill="white"/>
</svg>
