<svg width="243" height="243" viewBox="0 0 243 243" fill="none" xmlns="http://www.w3.org/2000/svg">
<path d="M146.902 86.6052C150.568 79.7958 152.329 71.253 152.329 62.1702C152.329 50.2794 148.802 22.6152 121.5 22.6152C94.1976 22.6152 90.6714 50.274 90.6714 62.1702C90.6714 71.2584 92.4318 79.7958 96.0984 86.6052C70.3458 94.5432 37.3032 112.849 33.1938 174.809C32.076 191.695 36.5796 204.935 45.2466 210.233C47.3688 211.529 50.2308 212.636 53.8164 212.636C56.8998 212.636 60.5232 211.81 64.6704 209.59C76.3344 219.272 98.0964 220.385 121.5 220.385C144.904 220.385 166.666 219.272 178.33 209.59C182.477 211.81 186.1 212.636 189.184 212.636C192.769 212.636 195.631 211.529 197.753 210.233C206.415 204.935 210.919 191.695 209.801 174.809C205.697 112.849 172.649 94.5432 146.896 86.6052H146.902ZM121.5 27.27C145.125 27.27 147.674 51.678 147.674 62.1702C147.674 70.3566 145.784 97.0704 121.5 97.0704C97.2162 97.0704 95.3262 70.3566 95.3262 62.1702C95.3262 51.678 97.875 27.27 121.5 27.27ZM195.323 206.264C191.549 208.57 186.905 208.499 181.791 206.113C185.252 201.798 187.202 196.193 187.202 188.919C187.202 176.909 182.45 166.104 178.254 156.578C174.928 149.024 171.785 141.89 171.785 135.697C171.785 135.691 171.785 135.68 171.785 135.675C172.395 131.944 172.168 128.012 170.991 124.178C170.613 122.947 169.312 122.256 168.086 122.634C166.855 123.012 166.163 124.313 166.541 125.539C169.047 133.715 166.32 142.414 159.759 147.188C152.15 152.723 141.75 151.686 131.225 144.32C130.172 143.586 128.72 143.84 127.985 144.893C127.251 145.946 127.505 147.398 128.558 148.133C135.367 152.896 142.366 155.304 148.829 155.304C153.824 155.304 158.495 153.862 162.497 150.946C164.954 149.159 166.973 146.929 168.523 144.418C169.819 148.943 171.866 153.614 173.993 158.447C178.2 167.999 182.547 177.876 182.547 188.914C182.547 211.453 161.093 215.725 121.495 215.725C81.8964 215.725 60.4422 211.453 60.4422 188.914C60.4422 177.881 64.7892 168.005 68.9958 158.447C71.1234 153.608 73.17 148.937 74.466 144.418C76.0158 146.929 78.0354 149.159 80.4924 150.952C84.4938 153.862 89.1648 155.309 94.1598 155.309C100.618 155.309 107.622 152.901 114.431 148.138C115.484 147.404 115.738 145.951 115.004 144.898C114.269 143.845 112.817 143.591 111.764 144.326C101.245 151.686 90.8442 152.734 83.2302 147.193C76.6692 142.42 73.9422 133.72 76.4478 125.545C76.8258 124.313 76.1346 123.017 74.9034 122.639C73.6776 122.261 72.3708 122.953 71.9982 124.184C70.821 128.018 70.5942 131.949 71.2044 135.675C71.2044 135.686 71.2044 135.691 71.2044 135.697C71.2044 141.89 68.0616 149.024 64.7352 156.578C60.5394 166.104 55.7874 176.909 55.7874 188.919C55.7874 196.193 57.7368 201.798 61.1982 206.113C56.079 208.499 51.4404 208.57 47.6658 206.264C40.6134 201.949 36.8442 190.015 37.8324 175.117C41.8122 115.015 74.115 98.0154 98.6958 90.6822C103.745 97.4538 111.245 101.72 121.489 101.72C131.733 101.72 139.234 97.4484 144.283 90.6822C168.863 98.0208 201.166 115.02 205.146 175.117C206.134 190.015 202.365 201.949 195.313 206.264H195.323Z" fill="white"/>
</svg>
