<svg width="240" height="240" viewBox="0 0 240 240" fill="none" xmlns="http://www.w3.org/2000/svg">
<path d="M162.53 17.0256V16.728C162.53 14.1216 160.422 12 157.83 12H150.501C147.909 12 145.802 14.1216 145.802 16.728V17.0256C135.347 22.0752 128.411 35.88 128.411 51.9408C128.411 68.0016 135.501 81.8352 145.802 86.856V87.0768C145.802 89.2848 147.347 91.0608 149.387 91.5744V172.546C149.387 184.646 144.654 196.128 136.077 204.874C127.494 213.542 116.138 218.314 104.094 218.314C92.0511 218.314 80.6943 213.542 72.1119 204.874C63.5247 196.205 58.7968 184.723 58.7968 172.546V160.099H74.824V172.546C74.824 180.269 77.9584 187.867 83.4255 193.392C88.8976 198.917 96.4287 202.085 104.09 202.085C111.75 202.085 119.109 198.998 124.754 193.392C130.173 187.92 133.278 180.322 133.278 172.546V134.525C140.502 132.418 145.835 125.755 145.835 117.797C145.835 108.154 138.059 100.306 128.502 100.306C118.946 100.306 111.17 108.154 111.17 117.797C111.17 125.755 116.502 132.413 123.726 134.525V172.546C123.726 177.763 121.658 182.726 117.885 186.538C114.218 190.315 109.317 192.398 104.09 192.398C98.8623 192.398 93.9615 190.315 90.2655 186.509C86.5167 182.798 84.4528 177.84 84.4528 172.546V160.099H98.3152C104.09 160.099 108.784 155.366 108.784 149.544V79.512C108.784 73.6512 104.09 68.8752 98.3152 68.8752H56.7424C54.0544 68.8752 51.6256 69.936 49.7728 71.6352H33.6592C27.8416 71.6352 23.1087 76.1232 23.1087 81.6384V89.976C21.4095 90.1536 20.0656 91.5456 20.0656 93.2976V100.229C20.0656 102.019 21.4095 103.445 23.1087 103.627V125.424C21.4095 125.602 20.0656 126.994 20.0656 128.746V135.677C20.0656 137.496 21.3856 138.902 23.1087 139.075V147.336C23.1087 152.894 27.8416 157.416 33.6592 157.416H49.3024C49.216 157.637 49.1584 157.872 49.1584 158.126V172.541C49.1584 187.234 54.8991 201.13 65.3247 211.661C75.7599 222.197 89.5216 228 104.085 228C118.648 228 132.41 222.197 142.845 211.661C153.222 201.178 158.934 187.286 158.934 172.541V91.5744C160.974 91.0608 162.525 89.2848 162.525 87.072V86.8512C172.826 81.8304 179.915 67.7328 179.915 51.936C179.915 36.1392 172.979 22.0752 162.525 17.0208L162.53 17.0256ZM48.2512 93.8448H52.5999V99.7536H24.0159V93.8448H48.2512ZM27.0592 103.694H46.2831V125.357H27.0592V103.694ZM24.0159 135.202V129.293H52.5999V135.202H24.0159ZM115.11 117.797C115.11 110.323 121.12 104.246 128.507 104.246C135.894 104.246 141.899 110.323 141.899 117.797C141.899 125.27 136.139 131.04 128.973 131.299C128.642 131.309 128.373 131.309 128.042 131.299C120.875 131.045 115.11 125.107 115.11 117.797ZM87.4719 189.274C91.8879 193.824 97.7919 196.33 104.094 196.33C110.397 196.33 116.301 193.824 120.702 189.288C125.195 184.752 127.667 178.805 127.667 172.541V135.264C127.883 135.274 128.104 135.264 128.32 135.264C128.382 135.264 128.44 135.283 128.502 135.283C128.565 135.283 128.622 135.264 128.685 135.264C128.906 135.264 129.122 135.274 129.338 135.264V172.541C129.338 179.29 126.645 185.875 121.96 190.603C117.069 195.466 110.723 198.144 104.085 198.144C97.4464 198.144 90.9567 195.403 86.2191 190.618C81.4767 185.827 78.7552 179.242 78.7552 172.546V160.099H80.5119V172.546C80.5119 178.896 82.9888 184.848 87.4623 189.278L87.4719 189.274ZM98.3247 72.8112C101.867 72.8112 104.858 75.8784 104.858 79.5072V149.539C104.858 153.187 101.93 156.154 98.3247 156.154H56.7519C54.7119 156.154 52.912 155.184 51.7168 153.696C51.328 153.187 50.9632 152.664 50.7327 152.088C50.6896 151.982 50.6703 151.862 50.6319 151.752C50.3919 151.046 50.2288 150.307 50.2288 149.534V139.138H53.1712C55.0624 139.138 56.5456 137.616 56.5456 135.672V128.741C56.5456 126.874 55.0336 125.352 53.1712 125.352H50.2288V103.69H53.1712C55.0336 103.69 56.5456 102.134 56.5456 100.224V93.2928C56.5456 91.4256 55.0336 89.904 53.1712 89.904H50.2288V79.5072C50.2288 78.7584 50.3968 78.0384 50.6224 77.352C50.6944 77.1456 50.7616 76.9392 50.8528 76.7424C51.064 76.2576 51.352 75.8208 51.6736 75.4128C52.8832 73.8528 54.7168 72.8112 56.7616 72.8112H98.3344H98.3247ZM27.0592 81.6384C27.0592 78.3504 30.0879 75.576 33.6687 75.576H47.0175C46.8495 76.0128 46.7439 76.4784 46.6287 76.9392C46.5903 77.1024 46.5232 77.2608 46.4896 77.424C46.3552 78.1056 46.2831 78.8064 46.2831 79.512V89.9088H27.0592V81.6384ZM33.6687 153.475C30.0255 153.475 27.0592 150.72 27.0592 147.331V139.138H46.2831V149.534C46.2831 150.235 46.36 150.931 46.4896 151.608C46.5232 151.781 46.5904 151.939 46.6336 152.107C46.7488 152.568 46.8544 153.029 47.0272 153.47H33.6687V153.475ZM155.003 172.541C155.003 186.24 149.694 199.147 140.051 208.886C130.365 218.674 117.592 224.059 104.09 224.059C90.5871 224.059 77.8191 218.674 68.1328 208.886C58.4416 199.099 53.104 186.192 53.104 172.541V160.094H54.8559V172.541C54.8559 185.765 59.992 198.226 69.3088 207.643C78.6351 217.061 90.9855 222.25 104.09 222.25C117.194 222.25 129.544 217.061 138.875 207.634C148.192 198.139 153.323 185.678 153.323 172.541V91.8H154.998V172.541H155.003ZM159.818 83.7504C159.074 84.0528 158.589 84.7728 158.589 85.5744V87.072C158.589 87.5808 158.195 87.8592 157.83 87.8592H150.501C150.131 87.8592 149.742 87.5808 149.742 87.072V85.5744C149.742 84.7728 149.258 84.0528 148.514 83.7504C138.995 79.872 132.347 66.792 132.347 51.936C132.347 37.08 138.995 24 148.514 20.1264C149.258 19.824 149.742 19.104 149.742 18.3024V16.7232C149.742 16.3152 150.112 15.936 150.501 15.936H157.83C158.219 15.936 158.589 16.32 158.589 16.7232V18.3024C158.589 19.104 159.074 19.824 159.818 20.1264C169.336 24 175.984 37.08 175.984 51.936C175.984 66.792 169.336 79.872 159.818 83.7504Z" fill="white"/>
<path d="M148.507 119.765C149.002 119.765 149.491 119.582 149.875 119.213L155.179 114.091C155.962 113.337 155.986 112.089 155.227 111.307C154.474 110.525 153.221 110.496 152.443 111.259L147.139 116.381C146.357 117.134 146.333 118.382 147.091 119.165C147.475 119.563 147.989 119.765 148.507 119.765Z" fill="white"/>
</svg>
